<svg width="220" height="178" viewBox="0 0 220 178" fill="none" xmlns="http://www.w3.org/2000/svg">
<circle cx="110" cy="88" r="80" fill="#EAECF0"/>
<circle cx="26" cy="28" r="8" fill="#F2F4F7"/>
<circle cx="198" cy="134" r="6" fill="#F2F4F7"/>
<circle cx="25" cy="146" r="10" fill="#F2F4F7"/>
<circle cx="210" cy="54" r="10" fill="#F2F4F7"/>
<circle cx="191" cy="19" r="7" fill="#F2F4F7"/>
<g filter="url(#filter0_dd_2206_20692)">
<path d="M110 54.9529L116.912 52.0578L110.001 55.002V137.432L173.69 110.743V28.2767L174 28.1466L173.69 28.009V27.8705L173.53 27.9384L110.503 0L46 27.4765L46.3053 27.6076L46 109.74L110 137.383L110 54.9529Z" fill="#F9FAFB"/>
<path d="M110 54.9529V137.383L46 109.739L46.3053 27.6074L110 54.9529Z" fill="url(#paint0_linear_2206_20692)"/>
<path d="M110.001 55.0021V137.432L173.69 110.744V27.8706L110.001 55.0021Z" fill="url(#paint1_linear_2206_20692)"/>
<path d="M110 54.9529L174 28.1466L110.503 0L46 27.4765L110 54.9529Z" fill="#F2F4F7"/>
<path d="M70.1255 17.1998L133.881 44.9503L134.461 65.173L152.299 57.8126L151.759 37.4622L86.1172 10.3877L70.1255 17.1998Z" fill="#EAECF0"/>
</g>
<g filter="url(#filter1_b_2206_20692)">
<rect x="82" y="104" width="48" height="48" rx="24" fill="#E4E6E9"/>
<g clip-path="url(#clip0_2206_20692)">
<path d="M110 132L106 128M106 128L102 132M106 128V137M114.39 134.39C115.365 133.858 116.136 133.017 116.58 131.999C117.024 130.98 117.116 129.843 116.842 128.767C116.568 127.69 115.943 126.735 115.067 126.053C114.19 125.371 113.111 125.001 112 125H110.74C110.437 123.829 109.873 122.742 109.09 121.821C108.307 120.9 107.325 120.168 106.218 119.681C105.111 119.193 103.909 118.963 102.7 119.008C101.492 119.052 100.309 119.37 99.2411 119.938C98.1732 120.505 97.2479 121.307 96.5346 122.284C95.8213 123.26 95.3387 124.386 95.1229 125.575C94.9072 126.765 94.9641 127.989 95.2892 129.153C95.6143 130.318 96.1992 131.394 97 132.3" stroke="white" stroke-width="2.33333" stroke-linecap="round" stroke-linejoin="round"/>
</g>
<rect x="82" y="104" width="48" height="48" rx="24" stroke="#F9FAFB" stroke-width="8"/>
</g>
<defs>
<filter id="filter0_dd_2206_20692" x="26" y="0" width="168" height="177.432" filterUnits="userSpaceOnUse" color-interpolation-filters="sRGB">
<feFlood flood-opacity="0" result="BackgroundImageFix"/>
<feColorMatrix in="SourceAlpha" type="matrix" values="0 0 0 0 0 0 0 0 0 0 0 0 0 0 0 0 0 0 127 0" result="hardAlpha"/>
<feMorphology radius="4" operator="erode" in="SourceAlpha" result="effect1_dropShadow_2206_20692"/>
<feOffset dy="8"/>
<feGaussianBlur stdDeviation="4"/>
<feColorMatrix type="matrix" values="0 0 0 0 0.0627451 0 0 0 0 0.0941176 0 0 0 0 0.156863 0 0 0 0.03 0"/>
<feBlend mode="normal" in2="BackgroundImageFix" result="effect1_dropShadow_2206_20692"/>
<feColorMatrix in="SourceAlpha" type="matrix" values="0 0 0 0 0 0 0 0 0 0 0 0 0 0 0 0 0 0 127 0" result="hardAlpha"/>
<feMorphology radius="4" operator="erode" in="SourceAlpha" result="effect2_dropShadow_2206_20692"/>
<feOffset dy="20"/>
<feGaussianBlur stdDeviation="12"/>
<feColorMatrix type="matrix" values="0 0 0 0 0.0627451 0 0 0 0 0.0941176 0 0 0 0 0.156863 0 0 0 0.08 0"/>
<feBlend mode="normal" in2="effect1_dropShadow_2206_20692" result="effect2_dropShadow_2206_20692"/>
<feBlend mode="normal" in="SourceGraphic" in2="effect2_dropShadow_2206_20692" result="shape"/>
</filter>
<filter id="filter1_b_2206_20692" x="70" y="92" width="72" height="72" filterUnits="userSpaceOnUse" color-interpolation-filters="sRGB">
<feFlood flood-opacity="0" result="BackgroundImageFix"/>
<feGaussianBlur in="BackgroundImageFix" stdDeviation="4"/>
<feComposite in2="SourceAlpha" operator="in" result="effect1_backgroundBlur_2206_20692"/>
<feBlend mode="normal" in="SourceGraphic" in2="effect1_backgroundBlur_2206_20692" result="shape"/>
</filter>
<linearGradient id="paint0_linear_2206_20692" x1="46" y1="110.154" x2="71.2754" y2="41.7012" gradientUnits="userSpaceOnUse">
<stop stop-color="#DEE1E8"/>
<stop offset="1" stop-color="#EFF1F5"/>
</linearGradient>
<linearGradient id="paint1_linear_2206_20692" x1="110" y1="56.6155" x2="182.166" y2="70.9831" gradientUnits="userSpaceOnUse">
<stop stop-color="#E4E7EC"/>
<stop offset="1" stop-color="#F2F4F7"/>
</linearGradient>
<clipPath id="clip0_2206_20692">
<rect width="24" height="24" fill="white" transform="translate(94 116)"/>
</clipPath>
</defs>
</svg>
